<svg width="121" height="121" viewBox="0 0 121 121" fill="none" xmlns="http://www.w3.org/2000/svg">
<rect x="0.951172" y="0.358154" width="120" height="120" fill="black"/>
<path d="M63.8839 65.8929L63.9003 113.996H18.5957V65.8722H22.4978L63.8839 65.8929ZM99.2554 9.30912L90.2583 9.30713V18.871H99.2618L99.2554 9.30912ZM66.5543 26.4808V48.1569H86.9604L86.9564 26.4892L66.5543 26.4808Z" fill="#EAEAEA"/>
<path d="M78.72 20.6596L95.9992 20.6078L86.9644 26.4836V26.4764H66.5627L78.72 20.6596ZM18.5933 65.8702L22.4974 65.8722H63.9019V65.8806L83.9659 52.8443L45.6043 52.952L18.5933 65.8702ZM95.6238 6.74046L90.2554 9.30671H90.2578H99.2582L103.248 6.71973L95.6238 6.74046Z" fill="#D2D2D2"/>
<path d="M83.9674 52.8443L84.2748 97.4057L63.9019 113.995V65.8809L83.9674 52.8443ZM103.309 15.5746L103.247 6.71973L99.2577 9.30671H99.2609V18.8706L103.309 15.5746ZM86.9639 26.484V48.1533L96.14 40.6835L96.0007 20.6082L86.9639 26.484Z" fill="#F4F4F4"/>
</svg>
