<svg width="121" height="121" viewBox="0 0 121 121" fill="none" xmlns="http://www.w3.org/2000/svg">
<path d="M63.8346 66.0514L63.851 114.155H18.5464V66.0306H22.4485L63.8346 66.0514ZM99.2061 9.46757L90.209 9.46558V19.0295H99.2125L99.2061 9.46757ZM66.505 26.6393V48.3154H86.9111L86.9071 26.6477L66.505 26.6393Z" fill="#EAEAEA"/>
<path d="M78.6707 20.818L95.9498 20.7662L86.9151 26.6421V26.6349H66.5133L78.6707 20.818ZM18.5439 66.0286L22.4481 66.0306H63.8526V66.039L83.9166 53.0028L45.555 53.1105L18.5439 66.0286ZM95.5745 6.89891L90.2061 9.46516H90.2085H99.2089L103.198 6.87817L95.5745 6.89891Z" fill="#D2D2D2"/>
<path d="M83.9181 53.0028L84.2255 97.5641L63.8525 114.153V66.0394L83.9181 53.0028ZM103.26 15.733L103.198 6.87817L99.2084 9.46516H99.2116V19.0291L103.26 15.733ZM86.9146 26.6424V48.3118L96.0906 40.8419L95.9514 20.7666L86.9146 26.6424Z" fill="#F4F4F4"/>
</svg>
